<svg width="200" height="33" viewBox="0 0 200 33" fill="none" xmlns="http://www.w3.org/2000/svg">
<path d="M30.7274 32.1764C30.066 32.1683 29.2603 32.1691 28.4558 32.1097C27.8577 32.067 27.2549 32.0516 26.6559 32.0033C25.948 31.9465 25.2413 31.8726 24.5356 31.7957C24.0336 31.7415 23.5324 31.6735 23.0321 31.606C22.3828 31.5206 21.7364 31.4112 21.0908 31.2993C20.0005 31.11 18.9201 30.8776 17.8439 30.6157C15.4258 30.0236 13.0679 29.2511 10.7925 28.236C9.23056 27.5392 7.72798 26.7326 6.31258 25.7692C5.41703 25.1659 4.57153 24.4914 3.78426 23.7523C2.90758 22.9218 2.12276 22.0152 1.48277 20.9881C0.878247 20.0179 0.424541 18.984 0.190848 17.8617C0.0141596 17.0461 -0.0402781 16.2089 0.0293438 15.3773C0.157512 13.9478 0.621912 12.6354 1.34649 11.4067C1.8662 10.5383 2.48451 9.73292 3.18912 9.00652C4.07049 8.08456 5.0497 7.27838 6.09427 6.54953C7.49899 5.57032 8.99431 4.75133 10.5511 4.0417C12.2935 3.25491 14.0904 2.59484 15.9278 2.06663C17.0552 1.73766 18.1942 1.45527 19.3422 1.20834C20.2502 1.01295 21.1626 0.842905 22.0794 0.698217C22.7673 0.590556 23.4555 0.484609 24.1489 0.415825C24.8013 0.351741 25.4515 0.27056 26.1035 0.205194C26.4705 0.168026 26.8388 0.141113 27.207 0.122315C28.0935 0.0770285 28.9796 0.0172208 29.8682 0.00910348C31.0841 -0.00157722 32.3 -0.0105503 33.5155 0.0291819C34.252 0.0531067 34.9881 0.111206 35.7242 0.153929C35.8063 0.159056 35.8879 0.167181 35.9695 0.172307C36.7735 0.225284 37.5751 0.303884 38.3743 0.408128C38.8349 0.46794 39.2954 0.523914 39.7551 0.586716C40.3913 0.672162 41.024 0.779822 41.6554 0.895174C42.3535 1.02277 43.0492 1.16332 43.7425 1.31684C45.3289 1.66634 46.8952 2.10132 48.4347 2.61989C50.0937 3.17087 51.7103 3.84197 53.2718 4.62786C54.9337 5.47078 56.5089 6.44828 57.9456 7.6411C58.874 8.41011 59.7229 9.25987 60.4556 10.2207C61.0965 11.0615 61.6313 11.9634 62.0094 12.955C62.293 13.6955 62.4783 14.4699 62.5606 15.2586C62.7195 16.7782 62.4448 18.2231 61.845 19.6163C61.4425 20.5511 60.8991 21.4008 60.2642 22.1938C59.388 23.2883 58.3669 24.2321 57.2535 25.0788C56.1621 25.9014 55.0058 26.634 53.796 27.2697C51.9217 28.2651 49.9629 29.0585 47.9464 29.7147C46.3482 30.23 44.7237 30.6597 43.0798 31.0019C42.2519 31.1771 41.4188 31.3266 40.5822 31.4578C39.5569 31.6193 38.5283 31.7543 37.4964 31.8628C36.4227 31.9743 35.347 32.0486 34.2695 32.1102C33.1391 32.1721 32.0061 32.1747 30.7274 32.1764ZM3.02634 15.9964C3.02581 16.5519 3.09762 17.1051 3.23996 17.6421C3.41145 18.2758 3.67027 18.8826 4.00897 19.445C4.43196 20.1482 4.93913 20.7973 5.51922 21.3778C6.49202 22.3681 7.59726 23.1888 8.77598 23.9146C8.8811 23.978 8.99179 24.0316 9.10666 24.0749C9.36001 24.1731 9.5155 24.1201 9.66632 23.8911C9.70358 23.8339 9.73671 23.7741 9.76545 23.7121C9.84747 23.5412 9.92951 23.3669 10.0064 23.1918C10.9643 21.0022 11.9716 18.8366 13.0628 16.7094C14.1475 14.5942 15.3036 12.5192 16.5682 10.5052C17.8405 8.47889 19.2114 6.52262 20.758 4.69494C20.855 4.58044 20.9413 4.45654 21.0263 4.33308C21.0532 4.28586 21.0742 4.23549 21.0887 4.18312C21.1041 4.14039 21.0626 4.06777 21.0186 4.04897C20.8908 3.99923 20.7527 3.98204 20.6166 3.99898C20.3039 4.02993 19.9934 4.0803 19.687 4.14979C18.2344 4.46423 16.7895 4.82311 15.372 5.27511C13.6391 5.82709 11.9494 6.48417 10.3307 7.31513C9.29445 7.83949 8.30219 8.44655 7.36356 9.13042C6.49202 9.77126 5.685 10.486 4.98391 11.314C4.45753 11.9258 4.01514 12.6051 3.66848 13.3339C3.27056 14.1667 3.05179 15.0738 3.02634 15.9964ZM59.5913 15.8883C59.5973 15.5269 59.5101 14.9911 59.3713 14.4592C59.1815 13.7597 58.8877 13.0926 58.4998 12.4803C58.0471 11.7636 57.5089 11.1045 56.8972 10.5176C56.003 9.64523 55.0025 8.9121 53.9451 8.25332C53.8524 8.19526 53.7564 8.14276 53.6576 8.0961C53.5571 8.05121 53.4458 8.03637 53.3371 8.05338C53.2548 8.06267 53.1792 8.10301 53.1257 8.16616C53.0828 8.21918 53.044 8.2753 53.0095 8.33406C52.8855 8.54628 52.7765 8.76684 52.683 8.99414C51.7269 11.214 50.6973 13.3991 49.5942 15.5495C48.3381 17.9916 46.986 20.3772 45.4821 22.677C44.3824 24.3585 43.2063 25.9841 41.9058 27.5175C41.8271 27.6117 41.7535 27.7101 41.6853 27.8122C41.6581 27.8592 41.6372 27.9094 41.623 27.9618C41.6178 27.9815 41.6168 28.0021 41.6201 28.0222C41.6235 28.0423 41.6311 28.0615 41.6424 28.0784C41.6537 28.0954 41.6685 28.1098 41.6857 28.1206C41.703 28.1314 41.7224 28.1384 41.7426 28.1412C41.9734 28.1707 42.2076 28.1608 42.4351 28.1117C43.0362 27.987 43.6386 27.8665 44.235 27.7234C45.8025 27.3536 47.3466 26.8913 48.8594 26.3387C50.3341 25.7944 51.7688 25.1621 53.1398 24.3897C54.201 23.7916 55.2114 23.1196 56.1415 22.3305C56.7698 21.8035 57.3449 21.2161 57.8585 20.5767C58.3138 20.0129 58.6965 19.3941 58.9975 18.7349C59.3769 17.8916 59.59 17.0085 59.5913 15.8896V15.8883ZM32.887 2.96595C32.4722 2.96595 31.8437 2.96979 31.2157 2.96595C30.8467 2.96488 30.4785 3.0024 30.1173 3.07788C29.4981 3.19853 28.9159 3.46313 28.4178 3.85031C28.1596 4.05262 27.9208 4.27845 27.7043 4.5249C27.2842 5.01128 26.9255 5.54749 26.6362 6.12146C26.1894 6.9836 25.8288 7.88334 25.4733 8.78522C25.2345 9.38132 25.0605 10.0014 24.9543 10.6347C24.8838 11.0391 24.871 11.4515 24.9162 11.8595C25.02 12.7196 25.4627 13.3267 26.2782 13.6492C26.5576 13.7607 26.8505 13.8344 27.1493 13.8684C27.7478 13.9318 28.3515 13.9267 28.9488 13.853C29.4233 13.7921 29.894 13.7045 30.3587 13.5907C31.6092 13.2984 32.8366 12.9276 34.0516 12.5145C35.1372 12.1449 36.2083 11.7357 37.2781 11.323C38.9729 10.6693 40.6378 9.9477 42.254 9.11632C43.2883 8.58907 44.2951 8.00928 45.2702 7.37921C45.8913 6.98104 46.4882 6.54636 47.0577 6.07745C47.1623 5.98997 47.2621 5.89698 47.3568 5.7989C47.4014 5.7479 47.4377 5.69024 47.4645 5.62801C47.484 5.58408 47.4896 5.53521 47.4805 5.488C47.4714 5.44079 47.4481 5.39749 47.4136 5.36397C47.375 5.3257 47.3306 5.29371 47.282 5.26913C47.1449 5.2088 47.0047 5.15575 46.8621 5.1102C45.5154 4.70348 44.1533 4.35885 42.7756 4.07631C41.9212 3.90072 41.0612 3.74222 40.1956 3.62089C39.7496 3.55851 39.3044 3.48973 38.8575 3.43376C38.2748 3.3607 37.692 3.29107 37.1059 3.23211C36.6441 3.18554 36.1801 3.15778 35.7174 3.12018C34.8471 3.0514 33.9739 3.0155 32.887 2.96595ZM29.5666 29.155C29.7853 29.155 30.0036 29.155 30.222 29.155C30.7269 29.1495 31.2319 29.1798 31.7369 29.155C31.9416 29.1452 32.1479 29.1422 32.3496 29.1123C33.2084 28.9911 34.0072 28.6024 34.6327 28.0015C34.959 27.6901 35.2515 27.3451 35.5055 26.9723C35.845 26.4751 36.1372 25.9471 36.3783 25.3954C36.6594 24.7583 36.93 24.1166 37.1901 23.4703C37.4322 22.8756 37.6137 22.258 37.7318 21.6268C37.8232 21.1567 37.8398 20.6752 37.7809 20.1999C37.6856 19.5099 37.349 18.9703 36.7261 18.6315C36.6056 18.5678 36.4811 18.5117 36.3535 18.4636C36.0077 18.3341 35.644 18.2583 35.2752 18.2389C34.6066 18.1968 33.9353 18.2375 33.2766 18.3598C32.6584 18.4718 32.0488 18.6191 31.4396 18.7789C30.2643 19.0887 29.1086 19.4599 27.9654 19.8714C26.4624 20.4114 24.9662 20.9689 23.497 21.5956C21.8385 22.3036 20.2189 23.0909 18.6608 24.0022C17.8559 24.4658 17.078 24.9749 16.3311 25.527C16.0581 25.7312 15.7958 25.9504 15.5313 26.1678C15.4578 26.2288 15.3894 26.2958 15.3271 26.3682C15.1716 26.5459 15.1989 26.7326 15.3963 26.8488C15.4781 26.8985 15.5639 26.9413 15.6526 26.977C15.7671 27.0197 15.8855 27.0548 16.003 27.0902C17.6902 27.5921 19.4049 27.9962 21.1387 28.3006C22.2405 28.4984 23.3487 28.6573 24.4604 28.7876C25.3422 28.8906 26.2261 28.9739 27.1113 29.0294C27.929 29.0798 28.7463 29.1495 29.5666 29.155Z" fill="#002C5F"/>
<path d="M191.11 10.777C191.11 13.6334 191.11 16.4902 191.11 19.3472C191.11 19.5749 191.097 19.803 191.086 20.0308C191.082 20.1119 190.988 20.1974 190.903 20.2051C190.818 20.2128 190.722 20.2234 190.631 20.2234C189.443 20.2234 188.254 20.2234 187.066 20.2234C186.998 20.2234 186.93 20.2192 186.861 20.2145C186.733 20.2055 186.639 20.1213 186.633 20.0056C186.625 19.8231 186.618 19.6407 186.618 19.4583C186.618 18.041 186.618 16.624 186.618 15.2074C186.618 15.0017 186.615 14.7961 186.608 14.5904C186.607 14.5334 186.584 14.4789 186.545 14.4379C186.505 14.3969 186.451 14.3725 186.394 14.3696C186.258 14.3623 186.12 14.3563 185.984 14.3563C183.677 14.3563 181.369 14.3563 179.06 14.3563C178.419 14.3563 178.404 14.3516 178.406 14.9907C178.408 16.3849 178.408 17.779 178.406 19.1729C178.406 19.3557 178.406 19.5386 178.406 19.7214C178.399 20.1957 178.376 20.223 177.899 20.2243C176.757 20.2277 175.614 20.2277 174.472 20.2243C174.358 20.2287 174.243 20.2202 174.13 20.1991C174.069 20.1757 174.018 20.1299 173.988 20.0709C173.959 20.0091 173.945 19.9414 173.946 19.8731C173.939 19.6907 173.94 19.5074 173.94 19.3245C173.94 14.7766 173.94 10.2287 173.94 5.68103C173.94 5.31575 173.963 4.95046 173.979 4.58518C174.001 4.24235 174.076 3.90506 174.203 3.5859C174.572 2.61139 175.244 1.93509 176.225 1.57793C176.631 1.4231 177.061 1.33733 177.496 1.32416C177.747 1.31903 177.999 1.31177 178.25 1.31177C182.272 1.31177 186.293 1.31177 190.315 1.31177H190.657C191.051 1.31177 191.111 1.35448 191.11 1.79752C191.108 2.87157 191.11 3.94563 191.11 5.01968V10.777ZM182.518 10.2938H184.708C185.142 10.2938 185.575 10.2938 186.009 10.2938C186.145 10.2938 186.281 10.2797 186.417 10.2677C186.462 10.2612 186.504 10.2406 186.536 10.2089C186.568 10.1771 186.59 10.136 186.597 10.0913C186.606 9.95501 186.615 9.8183 186.615 9.68158C186.615 8.44946 186.615 7.21719 186.615 5.98478C186.615 5.89378 186.615 5.80236 186.61 5.71136C186.602 5.50116 186.527 5.42213 186.324 5.4123C186.188 5.40632 186.05 5.40504 185.914 5.40504C183.86 5.40504 181.807 5.40504 179.753 5.40504C179.617 5.40504 179.48 5.4076 179.343 5.41016C178.882 5.41913 178.5 5.77032 178.42 6.26676C178.402 6.42539 178.396 6.58524 178.403 6.74482C178.403 7.70324 178.403 8.66165 178.403 9.62007C178.403 9.73414 178.403 9.84821 178.407 9.96185C178.416 10.1849 178.513 10.278 178.753 10.287C178.935 10.2938 179.118 10.2934 179.301 10.2934C180.373 10.2942 181.446 10.2944 182.518 10.2938Z" fill="#002C5F"/>
<path d="M152.763 10.7158V2.28918C152.763 2.10633 152.763 1.92348 152.763 1.74105C152.77 1.35185 152.806 1.31724 153.197 1.30998C153.334 1.30741 153.471 1.30998 153.608 1.30998C157.604 1.30998 161.599 1.30998 165.595 1.30998C165.869 1.30998 166.143 1.31553 166.417 1.32408C166.828 1.34181 167.234 1.42368 167.62 1.56674C168.683 1.94313 169.377 2.68309 169.73 3.7456C169.835 4.0484 169.894 4.36519 169.906 4.6855C169.911 4.91364 169.92 5.14221 169.92 5.36907C169.92 8.97687 169.92 12.5851 169.92 16.1937C169.923 16.4904 169.911 16.787 169.883 17.0824C169.829 17.6068 169.658 18.1123 169.381 18.561C168.875 19.3851 168.134 19.882 167.202 20.0939C166.801 20.1841 166.39 20.2286 165.979 20.2268C161.801 20.2222 157.622 20.2211 153.444 20.2234C153.285 20.2234 153.125 20.2127 152.966 20.2037C152.881 20.1986 152.788 20.1101 152.784 20.0302C152.774 19.8025 152.762 19.5748 152.762 19.3467C152.762 16.4703 152.762 13.5933 152.763 10.7158ZM157.26 10.7274V12.3026C157.26 13.3302 157.26 14.3577 157.26 15.385C157.26 15.567 157.269 15.7494 157.278 15.9314C157.283 15.9764 157.302 16.0187 157.333 16.0518C157.363 16.0849 157.404 16.1071 157.449 16.1151C157.585 16.1245 157.722 16.1369 157.858 16.1369C159.958 16.1369 162.058 16.1369 164.158 16.1369C164.318 16.1369 164.478 16.128 164.637 16.119C164.803 16.1096 164.944 16.0335 165.072 15.9353C165.305 15.7584 165.414 15.508 165.45 15.2303C165.467 15.0484 165.472 14.8656 165.465 14.6831C165.465 12.0804 165.465 9.47758 165.465 6.87462C165.465 6.73791 165.473 6.59991 165.461 6.46405C165.452 6.32802 165.428 6.19335 165.39 6.06246C165.267 5.67496 164.994 5.4575 164.59 5.42162C164.387 5.40239 164.18 5.40709 163.975 5.40709C162.217 5.40709 160.459 5.40709 158.701 5.40709C158.428 5.40709 158.154 5.40709 157.88 5.40709C157.766 5.40709 157.652 5.40923 157.538 5.41479C157.375 5.42248 157.276 5.51177 157.271 5.66087C157.264 5.86594 157.26 6.07129 157.261 6.27693C157.26 7.75969 157.259 9.24317 157.26 10.7274Z" fill="#002C5F"/>
<path d="M131.406 10.7287C131.406 7.87221 131.406 5.01577 131.406 2.15933C131.406 1.2002 131.337 1.31127 132.249 1.31042C136.225 1.307 140.201 1.307 144.176 1.31042C144.45 1.31042 144.724 1.31939 144.998 1.32195C145.388 1.32917 145.773 1.39765 146.141 1.52489C147.481 1.96963 148.254 2.9091 148.5 4.28777C148.573 4.69235 148.586 5.1042 148.586 5.5169C148.582 8.28192 148.582 11.0471 148.586 13.8124C148.586 15.6862 148.586 17.56 148.586 19.4339C148.586 20.2883 148.606 20.2238 147.812 20.2255C146.829 20.2272 145.846 20.2272 144.864 20.2255C144.704 20.2255 144.544 20.2255 144.384 20.2187C144.224 20.2118 144.118 20.1183 144.114 19.9734C144.107 19.7453 144.105 19.5167 144.105 19.2899C144.105 16.4104 144.105 13.531 144.105 10.6518C144.105 9.37206 144.105 8.09238 144.105 6.81269C144.11 6.63002 144.106 6.4472 144.092 6.26498C144.079 6.1282 144.036 5.996 143.966 5.87782C143.896 5.75965 143.801 5.65843 143.687 5.58141C143.578 5.49651 143.447 5.44381 143.31 5.42932C143.151 5.41906 142.991 5.4101 142.831 5.4101C140.729 5.4101 138.627 5.4101 136.525 5.4101C136.411 5.4101 136.297 5.41223 136.183 5.41821C135.992 5.42846 135.911 5.5169 135.906 5.73009C135.901 5.95823 135.901 6.18722 135.901 6.41365C135.901 10.7099 135.901 15.0061 135.901 19.3023C135.901 20.3336 136.017 20.2225 134.996 20.2272C134.059 20.2315 133.122 20.2272 132.185 20.2272C132.003 20.2272 131.82 20.2225 131.638 20.2153C131.531 20.211 131.434 20.1059 131.424 19.9858C131.415 19.8495 131.409 19.7124 131.408 19.5757C131.408 19.1412 131.408 18.7071 131.408 18.2731L131.406 10.7287Z" fill="#002C5F"/>
<path d="M86.3849 10.7787C86.3849 13.6351 86.3849 16.4915 86.3849 19.348C86.3849 19.5757 86.3725 19.8038 86.3627 20.0316C86.3593 20.1119 86.2653 20.1982 86.1807 20.205C86.0961 20.2118 85.9991 20.2234 85.9081 20.2234C84.7198 20.2234 83.5317 20.2234 82.3437 20.2234C82.2527 20.2273 82.1617 20.2165 82.0742 20.1913C82.0438 20.1792 82.0162 20.1613 81.9928 20.1385C81.9694 20.1157 81.9507 20.0885 81.9379 20.0585C81.9116 19.9711 81.8996 19.8801 81.9024 19.7889C81.8986 19.4236 81.8994 19.0579 81.8994 18.6922C81.8994 16.9548 81.8994 15.2174 81.8994 13.48C81.8994 13.2745 81.8956 13.069 81.8866 12.8635C81.8802 12.7148 81.7764 12.6221 81.6174 12.6123C81.526 12.6068 81.4346 12.6033 81.3436 12.6033C78.9674 12.6033 76.5911 12.6033 74.2149 12.6033C73.7449 12.6033 73.7022 12.6461 73.6996 13.1083C73.6958 14.6395 73.6996 16.1707 73.6975 17.7015C73.6975 18.3872 73.6975 19.0729 73.6937 19.7581C73.6895 19.8713 73.672 19.9836 73.6415 20.0926C73.634 20.1141 73.6215 20.1335 73.6051 20.1492C73.5887 20.1649 73.5689 20.1766 73.5471 20.1832C73.4368 20.2074 73.3243 20.2205 73.2113 20.2225C72.3885 20.2259 71.5659 20.2259 70.7436 20.2225C70.3096 20.2225 69.8759 20.214 69.4423 20.2067C69.3543 20.2067 69.2603 20.1213 69.2565 20.0401C69.2462 19.8355 69.2343 19.6304 69.2338 19.4253C69.2321 17.8713 69.2321 16.3174 69.2338 14.7634V2.42336C69.2338 2.30929 69.2338 2.19479 69.2338 2.08158C69.2402 1.23225 69.1574 1.31256 70.0063 1.30872C71.0572 1.30559 72.1082 1.30559 73.1592 1.30872C73.2948 1.31094 73.4301 1.32366 73.5638 1.34675C73.5845 1.35447 73.6034 1.36659 73.619 1.3823C73.6347 1.39801 73.6467 1.41693 73.6544 1.43774C73.6771 1.50231 73.6894 1.57009 73.6907 1.63854C73.6967 1.86668 73.6971 2.09524 73.6975 2.3221C73.6975 4.17342 73.6975 6.02474 73.6975 7.87606C73.6975 8.52588 73.7022 8.53015 74.3383 8.53101C76.6454 8.53272 78.9531 8.53272 81.2616 8.53101C81.3983 8.53101 81.535 8.52161 81.6713 8.51136C81.7282 8.5051 81.781 8.47871 81.8202 8.43696C81.8593 8.3952 81.8823 8.34083 81.8849 8.28364C81.893 8.07815 81.8981 7.87265 81.8986 7.66715C81.8986 5.81583 81.8986 3.96451 81.8986 2.11319C81.8986 1.9077 81.9101 1.70262 81.9204 1.49755C81.9263 1.45229 81.9474 1.41037 81.9801 1.37852C82.0128 1.34667 82.0552 1.32675 82.1006 1.32196C82.1912 1.3147 82.2826 1.30615 82.3732 1.30615C83.5612 1.30615 84.7493 1.30615 85.9376 1.30615C86.0064 1.30615 86.0747 1.30958 86.1431 1.31342C86.2683 1.32069 86.3644 1.4057 86.3695 1.52019C86.3772 1.70262 86.3836 1.88548 86.3836 2.0679C86.3836 3.4393 86.3836 4.81042 86.3836 6.18125L86.3849 10.7787Z" fill="#002C5F"/>
<path d="M110.07 10.721C110.07 7.84431 110.07 4.9665 110.07 2.08755C110.07 1.23993 109.995 1.31085 110.839 1.30957C111.89 1.30729 112.94 1.30729 113.991 1.30957C114.127 1.31055 114.263 1.3214 114.397 1.34204C114.418 1.34994 114.437 1.36238 114.453 1.37847C114.469 1.39457 114.481 1.41392 114.488 1.43517C114.508 1.50065 114.518 1.56877 114.518 1.63725C114.523 1.86539 114.523 2.09396 114.523 2.32082C114.523 6.63753 114.523 10.9542 114.523 15.271C114.523 16.2066 114.446 16.1348 115.355 16.1357C117.32 16.1357 119.284 16.1357 121.247 16.1357C121.475 16.14 121.703 16.1326 121.93 16.1134C122.345 16.0707 122.686 15.7089 122.715 15.2885C122.73 15.0612 122.724 14.8322 122.724 14.6049C122.724 10.4938 122.724 6.38276 122.724 2.27169C122.724 2.04312 122.724 1.81498 122.73 1.58812C122.734 1.4215 122.823 1.32537 122.971 1.31726C123.039 1.31341 123.107 1.31128 123.176 1.31128C124.363 1.31128 125.551 1.31128 126.738 1.31128C126.852 1.31311 126.965 1.3257 127.076 1.34887C127.112 1.35613 127.149 1.40185 127.17 1.43859C127.191 1.47823 127.202 1.52206 127.203 1.56676C127.21 1.74933 127.213 1.9319 127.213 2.11447C127.213 6.81967 127.213 11.5246 127.213 16.2292C127.213 16.7816 127.165 17.3234 126.986 17.8484C126.575 19.0515 125.731 19.7842 124.514 20.0862C124.114 20.1827 123.703 20.2298 123.292 20.2264C119.09 20.2218 114.888 20.2204 110.686 20.2221C110.527 20.2205 110.369 20.2092 110.211 20.1883C110.189 20.1814 110.17 20.1698 110.153 20.1545C110.137 20.1391 110.124 20.1204 110.115 20.0995C110.089 20.0363 110.075 19.969 110.073 19.9008C110.066 19.6957 110.066 19.4898 110.066 19.2843C110.069 16.4304 110.07 13.576 110.07 10.721Z" fill="#002C5F"/>
<path d="M88.3421 1.33345C88.4732 1.32448 88.5856 1.31038 88.698 1.31038C90.1597 1.30867 91.6211 1.30867 93.0822 1.31038C93.1734 1.30612 93.2648 1.3107 93.3552 1.32405C93.4206 1.33505 93.4806 1.36716 93.5261 1.41548C93.6367 1.55988 93.735 1.71454 93.832 1.86877C95.1575 3.97443 96.4831 6.08038 97.8086 8.18661C97.9056 8.34041 98.0145 8.48567 98.1196 8.63563C98.1508 8.67835 98.2662 8.6728 98.2982 8.6258C98.4136 8.45491 98.5319 8.28829 98.64 8.11313C99.9422 6.04677 101.244 3.97956 102.545 1.91149C102.665 1.72009 102.793 1.53297 102.904 1.36507C102.98 1.34328 103.023 1.32021 103.066 1.31978C104.665 1.31522 106.264 1.31237 107.862 1.31124C107.934 1.31743 108.005 1.32915 108.075 1.34627C108.071 1.41505 108.088 1.49024 108.06 1.54151C107.963 1.72222 107.854 1.89654 107.744 2.07042C105.435 5.74259 103.126 9.4146 100.817 13.0865C100.422 13.7162 100.445 13.5633 100.445 14.3626C100.445 16.0527 100.445 17.7428 100.445 19.433C100.445 20.2994 100.471 20.2208 99.676 20.2233C98.6024 20.2263 97.5292 20.2233 96.456 20.2233C96.365 20.2233 96.274 20.2135 96.1834 20.2067C96.0929 20.1998 96.0023 20.1161 95.9984 20.0358C95.9878 19.8311 95.9749 19.6265 95.9745 19.4214C95.9728 17.7999 95.9728 16.1785 95.9745 14.557C95.9745 14.4656 95.9745 14.3741 95.9745 14.2827C95.9711 13.5829 96.0074 13.7491 95.6614 13.198C93.4512 9.67935 91.239 6.16184 89.0248 2.64547C88.7937 2.27848 88.566 1.90935 88.3455 1.53467C88.3182 1.49067 88.3421 1.41206 88.3421 1.33345Z" fill="#002C5F"/>
<path d="M195.508 10.7089C195.508 7.87527 195.508 5.04132 195.508 2.20709C195.508 1.97852 195.514 1.75039 195.522 1.52353C195.526 1.40305 195.616 1.31931 195.747 1.31888C197.072 1.31632 198.398 1.31519 199.722 1.31547C199.745 1.31547 199.768 1.32017 199.79 1.32188C199.871 1.32957 199.968 1.41715 199.976 1.49277C199.985 1.58377 199.996 1.67476 199.998 1.76576C200.001 1.97126 200 2.17676 200 2.38269C200 8.00415 200 13.6259 200 19.2479C200 19.4987 199.99 19.7499 199.979 20.0003C199.973 20.0569 199.947 20.1096 199.906 20.1488C199.865 20.1879 199.811 20.211 199.754 20.2139C199.64 20.2199 199.526 20.2237 199.412 20.2237C198.292 20.2237 197.173 20.2237 196.053 20.2237C195.917 20.222 195.78 20.21 195.646 20.1878C195.625 20.1802 195.605 20.168 195.589 20.1521C195.573 20.1363 195.561 20.1171 195.553 20.096C195.529 20.0319 195.516 19.9643 195.515 19.896C195.509 19.6905 195.509 19.4846 195.509 19.2791L195.508 10.7089Z" fill="#002C5F"/>
<path d="M81.4509 30.3659H79.4617V25.3699C79.4617 25.0985 79.3924 24.9119 79.2537 24.8102C79.115 24.7085 78.8945 24.6577 78.5923 24.6577H76.3442V30.3659H74.3551V25.3699C74.3551 25.0985 74.2857 24.9119 74.147 24.8102C74.0083 24.7085 73.7879 24.6577 73.4857 24.6577H71.2376V30.3659H69.2484V22.9646H79.4617C79.9801 22.9646 80.4087 23.0818 80.7477 23.3162C81.2165 23.6372 81.4509 24.1499 81.4509 24.8542V30.3659Z" fill="#002C5F"/>
<path d="M89.2546 30.3659H87.2654V28.5715H84.1466V30.3659H82.1575V24.6577C82.1575 23.529 82.7866 22.9646 84.045 22.9646H89.2533L89.2546 30.3659ZM87.2654 27.0617V24.6564H84.7584C84.3511 24.6564 84.1476 24.8843 84.1479 25.34V27.0617H87.2654Z" fill="#002C5F"/>
<path d="M96.521 30.3659H94.0879L91.9975 27.4607V30.3659H90.0083V22.9646H91.9975V25.8697L94.0879 22.9646H96.521L93.9307 26.6652L96.521 30.3659Z" fill="#002C5F"/>
<path d="M104.396 30.3659H102.407V28.5715H99.2885V30.3659H97.301V24.6577C97.301 23.529 97.93 22.9646 99.1881 22.9646H104.396L104.396 30.3659ZM102.407 27.063V24.6577H99.9003C99.493 24.6577 99.2893 24.8856 99.2893 25.3413V27.0617L102.407 27.063Z" fill="#002C5F"/>
<path d="M112.254 24.6577H107.619C107.546 24.6563 107.474 24.6728 107.408 24.7059C107.343 24.739 107.287 24.7875 107.245 24.8474C107.149 24.9737 107.098 25.1285 107.101 25.287V25.3054C107.101 25.7249 107.289 25.9345 107.666 25.9343H110.256C111.064 25.9343 111.622 26.1224 111.93 26.4986C112.14 26.7515 112.245 27.1278 112.245 27.6274V28.4784C112.245 29.1013 112.035 29.5824 111.616 29.9216C111.252 30.2175 110.798 30.3656 110.256 30.3659H105.103V28.7373H109.691C110.067 28.7373 110.255 28.5308 110.255 28.1178V28.099C110.255 27.7416 110.082 27.5319 109.737 27.4701H107.1C106.558 27.4701 106.104 27.3222 105.74 27.0263C105.321 26.687 105.111 26.206 105.111 25.5831V24.6577C105.111 24.1581 105.216 23.7819 105.426 23.529C105.734 23.153 106.292 22.9649 107.1 22.9646H112.254V24.6577Z" fill="#002C5F"/>
<path d="M120.13 24.6577H115.495C115.422 24.6563 115.35 24.6728 115.284 24.7059C115.219 24.739 115.163 24.7875 115.121 24.8474C115.025 24.9737 114.974 25.1285 114.977 25.287V25.3054C114.977 25.7249 115.165 25.9345 115.541 25.9343H118.132C118.94 25.9343 119.498 26.1224 119.806 26.4986C120.016 26.7515 120.121 27.1278 120.121 27.6274V28.4784C120.121 29.1013 119.911 29.5824 119.492 29.9216C119.128 30.2175 118.674 30.3656 118.132 30.3659H112.98V28.7373H117.569C117.945 28.7373 118.133 28.5308 118.133 28.1178V28.099C118.133 27.7416 117.96 27.5319 117.615 27.4701H114.978C114.435 27.4701 113.982 27.3222 113.619 27.0263C113.199 26.687 112.989 26.206 112.989 25.5831V24.6577C112.989 24.1581 113.094 23.7819 113.304 23.529C113.612 23.153 114.17 22.9649 114.978 22.9646H120.131L120.13 24.6577Z" fill="#002C5F"/>
<path d="M127.942 30.3659H125.953V28.5715H122.834V30.3659H120.845V24.6577C120.845 23.529 121.474 22.9646 122.732 22.9646H127.941L127.942 30.3659ZM125.953 27.063V24.6577H123.447C123.04 24.6577 122.837 24.8856 122.837 25.3413V27.0617L125.953 27.063Z" fill="#002C5F"/>
<path d="M135.731 25.8603C135.731 26.2306 135.659 26.5421 135.517 26.7947C135.165 27.2265 134.499 27.4794 133.519 27.5535L135.471 30.3565L133.177 30.3659L131.225 27.5535H130.625V30.3659H128.636V22.9646H133.835C135.099 22.9646 135.731 23.529 135.731 24.6577L135.731 25.8603ZM133.742 25.3609V25.3425C133.742 24.8868 133.538 24.659 133.131 24.659H130.625V26.0466H133.132C133.54 26.0458 133.743 25.8172 133.743 25.3609H133.742Z" fill="#002C5F"/>
</svg>
