<svg width="54" height="53" viewBox="0 0 54 53" fill="none" xmlns="http://www.w3.org/2000/svg">
<path d="M51.7771 3.58974C51.6016 3.12599 51.3293 2.70481 50.9787 2.3542C50.6281 2.00359 50.2072 1.73155 49.7434 1.55607C45.5778 -0.0575532 41.0328 -0.425833 36.6616 0.496047C32.2905 1.41793 28.2815 3.59017 25.1223 6.74864L14.9133 16.9577L6.34503 16.8628C5.18155 16.849 4.04017 17.1822 3.0668 17.8197C2.09344 18.4572 1.33226 19.3702 0.879887 20.4422C0.427516 21.5142 0.304639 22.6967 0.527041 23.8388C0.749444 24.9809 1.30685 26.0309 2.12842 26.8548L25.6377 50.4454C26.4519 51.2626 27.4895 51.8211 28.62 52.0509C29.7505 52.2808 30.9235 52.1717 31.9922 51.7372C33.0609 51.3028 33.9775 50.5624 34.627 49.609C35.2765 48.6556 35.63 47.5316 35.6432 46.378V39.1517L46.4894 28.3055C49.6824 25.1486 51.884 21.1279 52.8234 16.7371C53.7627 12.3463 53.3991 7.7767 51.7771 3.58974Z" fill="#1C305D"/>
<path d="M0.108502 49.8488L3.24042 39.9381C3.33823 39.6249 3.51454 39.3418 3.75248 39.1159C3.99042 38.8899 4.28199 38.7285 4.59984 38.647C4.91769 38.5655 5.25104 38.5667 5.56835 38.6503C5.88565 38.7338 6.17627 38.8971 6.41273 39.1246L13.4495 45.9035C13.6904 46.1366 13.8666 46.4284 13.9612 46.7501C14.0557 47.0718 14.0651 47.4125 13.9887 47.7389C13.9122 48.0654 13.7525 48.3665 13.5249 48.6127C13.2973 48.8589 13.0096 49.0419 12.6901 49.1438L2.52182 52.3163C2.18052 52.4276 1.81489 52.4411 1.46626 52.3556C1.11764 52.27 0.80006 52.0886 0.549063 51.832C0.298066 51.5754 0.12376 51.2537 0.0459429 50.9032C-0.0318742 50.5528 -0.010285 50.1876 0.108502 49.8488Z" fill="#1C305D"/>
<path d="M35.5755 24.8212C39.1023 24.8212 41.9612 21.9622 41.9612 18.4355C41.9612 14.9088 39.1023 12.0498 35.5755 12.0498C32.0488 12.0498 29.1898 14.9088 29.1898 18.4355C29.1898 21.9622 32.0488 24.8212 35.5755 24.8212Z" fill="white"/>
</svg>
