<svg width="54" height="54" viewBox="0 0 54 54" fill="none" xmlns="http://www.w3.org/2000/svg">
<path d="M49.3464 31.6731V48.915C49.3407 50.0921 48.871 51.2194 48.0393 52.0523C47.6281 52.4659 47.1393 52.7942 46.6009 53.0186C46.0625 53.2429 45.4853 53.3588 44.9021 53.3595C44.3208 53.3595 43.745 53.2448 43.2081 53.0219C42.6712 52.799 42.1834 52.4724 41.773 52.0607C41.3625 51.6491 41.0375 51.1604 40.8162 50.6229C40.5949 50.0853 40.4819 49.5094 40.4837 48.9281V47.7385C40.4837 47.1665 40.2566 46.6179 39.8521 46.2134C39.4476 45.8089 38.899 45.5817 38.3269 45.5817H10.4183C9.84624 45.5817 9.2976 45.8089 8.89311 46.2134C8.48862 46.6179 8.26153 47.1665 8.26153 47.7385V49.647C8.26394 50.7437 7.83126 51.7967 7.0587 52.5751C6.28027 53.3477 5.22733 53.7801 4.13061 53.7777C3.03507 53.7777 1.98451 53.3425 1.20985 52.5678C0.435193 51.7932 0 50.7426 0 49.647V33.0588C0.00141662 29.7696 0.668396 26.5147 1.96079 23.4901L6.74499 12.3137C7.196 11.2551 7.94825 10.3525 8.90811 9.71803C9.86796 9.08355 10.9932 8.74523 12.1439 8.74506H29.7778C29.615 9.57179 29.5319 10.4122 29.5296 11.2548C29.5268 12.7122 29.7787 14.1589 30.2744 15.5294H13.5165C12.7916 15.5287 12.0828 15.7433 11.48 16.1459C10.8773 16.5485 10.4077 17.121 10.1307 17.7908L6.92817 25.6339C6.81175 25.9147 6.76657 26.22 6.79669 26.5225C6.82681 26.825 6.93131 27.1153 7.10083 27.3677C7.27035 27.62 7.49949 27.8265 7.76815 27.9688C8.0368 28.111 8.33637 28.1846 8.64035 28.183H45.7255C46.6646 28.1791 47.5683 28.5415 48.2445 29.1932C48.9206 29.8449 49.3158 30.7346 49.3464 31.6731Z" fill="#1C305D"/>
<path d="M10.0654 39.4641C12.1518 39.4641 13.8432 37.7727 13.8432 35.6863C13.8432 33.5999 12.1518 31.9085 10.0654 31.9085C7.97897 31.9085 6.2876 33.5999 6.2876 35.6863C6.2876 37.7727 7.97897 39.4641 10.0654 39.4641Z" fill="white"/>
<path d="M39.6862 39.4641C41.7726 39.4641 43.464 37.7727 43.464 35.6863C43.464 33.5999 41.7726 31.9085 39.6862 31.9085C37.5998 31.9085 35.9084 33.5999 35.9084 35.6863C35.9084 37.7727 37.5998 39.4641 39.6862 39.4641Z" fill="white"/>
<path d="M42.0914 22.4836C48.3001 22.4836 53.3333 17.4505 53.3333 11.2418C53.3333 5.03308 48.3001 -6.10352e-05 42.0914 -6.10352e-05C35.8827 -6.10352e-05 30.8496 5.03308 30.8496 11.2418C30.8496 17.4505 35.8827 22.4836 42.0914 22.4836Z" fill="#1C305D"/>
<path d="M37.5948 14.1045H39.3465C39.351 14.3108 39.4043 14.5132 39.5019 14.695C39.5996 14.8767 39.7389 15.0327 39.9085 15.1503C40.3642 15.4305 40.8899 15.5756 41.4248 15.5686V11.647L40.0391 11.1372C39.3678 10.9213 38.7675 10.5284 38.3007 9.99995C37.9018 9.54947 37.6831 8.96767 37.6864 8.36596C37.6782 7.96227 37.7636 7.56217 37.9359 7.19703C38.1083 6.8319 38.363 6.51166 38.6798 6.2614C39.4753 5.67258 40.4352 5.34796 41.4248 5.33327V4.40521H42.8235V5.33327C43.7326 5.36893 44.6124 5.66377 45.3594 6.18297C45.6446 6.42022 45.8759 6.71539 46.0382 7.04895C46.2005 7.38252 46.2899 7.7468 46.3006 8.11759H44.5753C44.5612 7.94018 44.511 7.7675 44.4278 7.61016C44.3447 7.45282 44.2301 7.3141 44.0915 7.20254C43.7061 6.9365 43.2523 6.78683 42.7843 6.77122V10.2483L43.9999 10.7059C44.7478 10.9359 45.4264 11.3493 45.9738 11.9085C46.3703 12.4241 46.5737 13.0624 46.5488 13.7124C46.5627 14.1415 46.4807 14.5683 46.3089 14.9617C46.137 15.3552 45.8799 15.7054 45.5557 15.9869C44.7666 16.623 43.7965 16.9935 42.7843 17.0457V17.9739H41.3855V17.0719C40.3672 17.1123 39.3618 16.8335 38.5097 16.2744C38.191 16.0135 37.9384 15.681 37.7725 15.3039C37.6067 14.9268 37.5324 14.5158 37.5555 14.1045H37.5948ZM41.4248 6.79731C40.9229 6.82721 40.4369 6.98473 40.0129 7.25488C39.8567 7.35322 39.7267 7.48768 39.6334 7.64694C39.5402 7.8062 39.4864 7.9856 39.4771 8.16993C39.4735 8.35992 39.5114 8.54836 39.5881 8.7222C39.6649 8.89603 39.7788 9.05102 39.9216 9.17641C40.3688 9.50702 40.8811 9.73876 41.4248 9.85617V6.79731ZM42.8235 12.2222V15.5424C43.3517 15.4837 43.8557 15.2902 44.2874 14.9803C44.4439 14.8599 44.5712 14.7057 44.6595 14.5291C44.7478 14.3525 44.795 14.1582 44.7974 13.9608C44.8061 13.7567 44.7668 13.5535 44.6828 13.3673C44.5988 13.1812 44.4723 13.0173 44.3136 12.8889C43.8776 12.5502 43.3666 12.3215 42.8235 12.2222Z" fill="white"/>
</svg>
