<svg width="55" height="55" viewBox="0 0 55 55" fill="none" xmlns="http://www.w3.org/2000/svg">
<path d="M10.67 2.73766L35.7162 2.39716L48.3527 15.0463L48.4284 39.6132L10.67 2.73766Z" fill="#1C305D"/>
<path d="M50.1185 48.3276L49.0087 47.2178L2.62419 0.833313L0.833374 2.61151L9.30819 11.0863V48.3276H46.5495L52.3885 54.1666L54.1667 52.3884L50.1185 48.3276Z" fill="#1C305D"/>
<path d="M22.9661 31.3149H15.084C14.7495 31.3149 14.4289 31.182 14.1923 30.9455C13.9558 30.709 13.8229 30.3883 13.8229 30.0538C13.8229 29.7193 13.9558 29.3985 14.1923 29.162C14.4289 28.9255 14.7495 28.7927 15.084 28.7927H23.0166C23.3511 28.7927 23.6717 28.9255 23.9082 29.162C24.1448 29.3985 24.2777 29.7193 24.2777 30.0538C24.2779 30.2237 24.2435 30.392 24.177 30.5484C24.1105 30.7047 24.0132 30.8461 23.8907 30.9639C23.7682 31.0816 23.6231 31.1735 23.4643 31.2338C23.3054 31.2941 23.1359 31.3217 22.9661 31.3149Z" fill="white"/>
<path d="M32.1219 40.042H15.084C14.7495 40.042 14.4289 39.9091 14.1923 39.6726C13.9558 39.4361 13.8229 39.1153 13.8229 38.7808C13.8229 38.4464 13.9558 38.1256 14.1923 37.8891C14.4289 37.6526 14.7495 37.5197 15.084 37.5197H32.1724C32.5069 37.5197 32.8276 37.6526 33.0641 37.8891C33.3006 38.1256 33.4336 38.4464 33.4336 38.7808C33.4337 38.9508 33.3994 39.119 33.3329 39.2754C33.2664 39.4318 33.169 39.5731 33.0465 39.6909C32.924 39.8087 32.779 39.9005 32.6201 39.9609C32.4612 40.0212 32.2917 40.0488 32.1219 40.042Z" fill="white"/>
<path d="M32.0087 7.31561L42.4887 17.72L32.6897 16.6354L32.0087 7.31561Z" fill="white"/>
</svg>
