<svg width="46" height="55" viewBox="0 0 46 55" fill="none" xmlns="http://www.w3.org/2000/svg">
<path d="M45.7352 12.8365C45.6912 12.3456 45.5439 11.8697 45.3029 11.4399C42.759 6.03634 30.8379 0.599544 24.071 0.0176225C23.6834 -0.00580948 23.2949 -0.00580948 22.9073 0.0176225C22.503 -0.00587416 22.0978 -0.00587416 21.6936 0.0176225C15.043 0.61617 3.60404 5.88672 0.810816 11.1406C0.736712 11.2288 0.680103 11.3304 0.644391 11.4399C0.371357 11.8831 0.206545 12.3843 0.162568 12.903C-0.203211 19.1379 0.162568 27.5009 0.162568 27.5009C0.162568 27.5009 0.328767 46.7375 22.9572 54.2194C45.5524 46.671 45.7352 27.5175 45.7352 27.5175C45.7352 27.5175 46.0843 19.0713 45.7352 12.8365Z" fill="#1C305D"/>
<path d="M19.582 36.8782C19.1836 36.8736 18.8002 36.7261 18.5014 36.4626L9.58955 28.7147C9.25681 28.4257 9.05244 28.0166 9.02126 27.577C8.99009 27.1374 9.13449 26.7034 9.42312 26.3704C9.71206 26.0376 10.1213 25.8333 10.5609 25.8021C11.0005 25.7709 11.4347 25.9155 11.7677 26.2042L19.4821 32.8547L33.9636 17.6083C34.1181 17.4524 34.3021 17.3288 34.5047 17.2444C34.7073 17.16 34.9245 17.1165 35.144 17.1165C35.3635 17.1165 35.5811 17.16 35.7837 17.2444C35.9863 17.3288 36.1702 17.4524 36.3248 17.6083C36.6345 17.9198 36.8082 18.3412 36.8082 18.7805C36.8082 19.2197 36.6345 19.6411 36.3248 19.9527L20.7457 36.3462C20.5965 36.5073 20.417 36.6373 20.2172 36.7287C20.0175 36.82 19.8015 36.8708 19.582 36.8782Z" fill="white"/>
</svg>
